Coordinates
version=1
nRows=32
nColumns=12
inDegrees=yes

Units are S.I. units (second, meters, Newtons, ...)
Angles are in degrees

endheader
time	SC_y	SC_z	SC_x	AC_y	AC_z	AC_x	GH_y	GH_z	GH_yy	EL_x	PS_y
       0.0              -48.67           7.82          31.82          51.91            8.6          1.292         -82.41          38.14         -177.3           84.4          26.14
   0.02294              -48.67          7.824          31.81          51.91          8.596          1.289         -82.41          38.14         -177.3           84.4          26.14
   0.04587              -48.66          7.829          31.81          51.92          8.592          1.286         -82.41          38.13         -177.3          84.41          26.15
   0.06881              -48.66          7.834          31.81          51.92          8.588          1.283         -82.42          38.12         -177.3          84.41          26.16
   0.09175              -48.66          7.839          31.81          51.92          8.584           1.28         -82.42          38.12         -177.3          84.42          26.17
    0.1147              -48.66          7.845          31.81          51.92          8.579          1.276         -82.42          38.11         -177.3          84.42          26.18
    0.1376              -48.65          7.851          31.81          51.92          8.574          1.272         -82.43           38.1         -177.3          84.43          26.19
    0.1606              -48.65          7.858          31.81          51.93          8.569          1.268         -82.43          38.09         -177.3          84.44           26.2
    0.1835              -48.65          7.865           31.8          51.93          8.563          1.264         -82.43          38.08         -177.3          84.44          26.22
    0.2064              -48.64          7.872           31.8          51.93          8.557           1.26         -82.44          38.07         -177.3          84.45          26.23
    0.2294              -48.64           7.88           31.8          51.93           8.55          1.255         -82.44          38.06         -177.2          84.46          26.24
    0.2523              -48.63          7.889           31.8          51.94          8.543           1.25         -82.44          38.04         -177.2          84.47          26.26
    0.2752              -48.63          7.898           31.8          51.94          8.536          1.244         -82.45          38.03         -177.2          84.48          26.28
    0.2982              -48.62          7.908          31.79          51.94          8.527          1.238         -82.45          38.02         -177.2          84.49          26.29
    0.3211              -48.62          7.919          31.79          51.95          8.518          1.231         -82.46           38.0         -177.2           84.5          26.31
     0.344              -48.61          7.931          31.79          51.95          8.509          1.224         -82.47          37.98         -177.2          84.51          26.33
     0.367              -48.61          7.943          31.78          51.96          8.498          1.216         -82.47          37.97         -177.1          84.52          26.36
    0.3899               -48.6          7.957          31.78          51.96          8.487          1.208         -82.48          37.95         -177.1          84.53          26.38
    0.4129              -48.59          7.972          31.78          51.97          8.474          1.198         -82.49          37.92         -177.1          84.55          26.41
    0.4358              -48.59          7.989          31.77          51.97           8.46          1.188          -82.5           37.9         -177.1          84.57          26.44
    0.4587              -48.58          8.007          31.77          51.98          8.445          1.177          -82.5          37.87         -177.0          84.58          26.47
    0.4817              -48.57          8.027          31.76          51.99          8.429          1.165         -82.51          37.84         -177.0           84.6          26.51
    0.5046              -48.56           8.05          31.76          51.99          8.411          1.151         -82.53          37.81         -177.0          84.63          26.55
    0.5275              -48.54          8.074          31.75           52.0           8.39          1.136         -82.54          37.78         -176.9          84.65          26.59
    0.5505              -48.53          8.102          31.74          52.01          8.368          1.119         -82.55          37.74         -176.9          84.68          26.64
    0.5734              -48.52          8.132          31.74          52.02          8.343          1.101         -82.57          37.69         -176.8          84.71           26.7
    0.5963               -48.5          8.166          31.73          52.04          8.314           1.08         -82.59          37.64         -176.8          84.74          26.76
    0.6193              -48.48          8.205          31.72          52.05          8.283          1.056          -82.6          37.59         -176.7          84.78          26.83
    0.6422              -48.46          8.248          31.71          52.07          8.247           1.03         -82.63          37.53         -176.6          84.82           26.9
    0.6652              -48.44          8.298           31.7          52.08          8.206         0.9995         -82.65          37.46         -176.5          84.87          26.99
    0.6881              -48.41          8.354          31.68           52.1           8.16          0.965         -82.68          37.37         -176.4          84.93          27.09
     0.711              -48.38          8.419          31.66          52.13          8.107         0.9255         -82.71          37.28         -176.3          84.99          27.21
